<?xml version="1.0" encoding="utf-8"?>
<!-- Generator: Adobe Illustrator 23.0.1, SVG Export Plug-In . SVG Version: 6.00 Build 0)  -->
<svg version="1.1" id="Laag_1" xmlns="http://www.w3.org/2000/svg" xmlns:xlink="http://www.w3.org/1999/xlink" x="0px" y="0px"
	 viewBox="0 0 680.5 323.7" style="enable-background:new 0 0 680.5 323.7;" xml:space="preserve">
<style type="text/css">
	.st0{fill:#FFFFFF;}
</style>
<title>Logo</title>
<g>
	<g>
		<path class="st0" d="M257.2,201.5h1.5c3.7-0.1,7.5,0.3,11.1,1.3c2.6,0.7,5.1,2,7.2,3.8c2.2,1.8,3.5,4.6,3.5,7.4v0.2
			c-0.1,2-0.8,3.9-2.1,5.4c-0.5,0.6-1.1,1.1-1.7,1.6l-0.6,0.5c-0.2-0.3-0.3-0.6-0.4-1c0-0.1,0.3-0.4,0.8-0.9
			c0.9-1.1,1.5-2.4,1.7-3.8c0.2-0.5,0.2-1.1,0.2-1.7v-0.4c0-0.8-0.5-1.5-1.2-1.8c-0.7-0.5-1.5-1-2.3-1.3c-1.3-0.4-2.6-0.8-4-1
			c-2.8-0.5-5.6-0.7-8.4-0.8c-6.4,0-12.8,0.8-19,2.5c-5.3,1.3-10.4,2.9-15.4,5.1c-2.7,1.1-5.2,2.5-7.6,4.2c-0.9,0.7-1.7,1.5-2.5,2.3
			c-1,1-1.6,2.4-1.8,3.8c0,2.3,2.8,5.4,8.5,9.3c2.1,1.4,4,3,5.9,4.7c1.1,0.9,2.1,1.9,3,3c1,1.2,1.9,2.4,2.7,3.7
			c0.9,1.6,1.7,3.2,2.3,5l0,0c2.5-9.9,5-19.8,7.4-29.9c1-4.2,1.7-7.1,2.1-8.6c0.3-0.9,0.5-1.4,0.7-1.4c0.2-0.1,0.4-0.2,0.6-0.2
			c0.9,0,2.1,0.9,3.5,2.5c0.5,0.7,0.9,1.4,1.3,2.3c0.1,0.3,0.2,0.7,0.3,1v0.2c0,0.8-1.1,5.4-3.2,13.7c-2.4,9.7-5.3,22.1-8.7,36.9
			c-0.4,1.8-0.7,3.5-1,5.1c-0.3,0.8-0.6,1.2-1.1,1.2h-0.1c-0.9-0.1-1.7-0.5-2.3-1.1c-0.8-0.7-1.5-1.6-2.2-2.5
			c-0.7-0.9-1.1-1.9-1.2-3c0.2-1.8,0.7-3.6,1.3-5.3c0.7-2.2,1.4-4.9,2.1-8.1c-0.3-1.5-0.8-3-1.4-4.4c-0.6-1.4-1.4-2.7-2.3-4
			c-1.7-2.3-3.7-4.3-6-5.9c-1.2-0.9-3.4-2.4-6.4-4.5c-1.1-0.9-2.2-1.8-3.2-2.8c-0.9-0.9-1.7-1.9-2.5-2.9c-1.3-1.8-2-4-2.1-6.2v-0.3
			c0-3.4,2-6.8,6.1-10.3c1.8-1.4,3.6-2.7,5.6-3.8c3.1-1.7,6.4-3.2,9.7-4.5C243.7,203,251,201.5,257.2,201.5z"/>
		<path class="st0" d="M256.4,252.5c-0.5,0.7-1,1.4-1.5,2.2c-0.9,1.5-1.5,3.1-1.7,4.9c0,0.7,0.5,1.2,1.1,1.3
			c0.4,0.1,0.9,0.2,1.3,0.2c2-0.1,3.9-0.8,5.4-2c2-1.5,3.9-3,5.6-4.8c1.7-1.6,3.5-3.4,5.5-5.4c0.4-0.4,0.9-0.8,1.4-1.2
			c0.3,0.2,0.4,0.3,0.4,0.5l0,0c0,0.3-1,1.4-2.9,3.3c-2,2.1-3.7,4-5.1,5.6c-1.3,1.6-2.8,3-4.3,4.4c-1.8,1.4-3.3,2.2-4.4,2.3
			c-0.4,0.1-0.9,0.1-1.3,0.1c-2.3,0-4.1-1.4-5.7-4.2c-0.6-1.1-0.9-2.3-0.9-3.6c0-2.9,1.7-6.3,5.1-10.1c0.8-0.9,1.6-1.6,2.5-2.3
			c1.8-1.4,3.3-2,4.5-2h0.3c1.5,0.1,2.8,0.8,3.8,2c0.8,0.8,1.3,1.8,1.5,2.9c0.1,1.3-0.5,2.8-1.9,4.5c-1,1.1-2.2,2-3.6,2.4
			C259.8,253.8,257.9,253.5,256.4,252.5z M264,246.1c-1.5,0.4-2.9,1.2-4,2.3c-0.9,0.8-1.7,1.7-2.4,2.6c0.3,0.2,0.7,0.2,1,0.1
			l0.6-0.1c1.3-0.4,2.5-1.2,3.4-2.3C263.2,248,263.7,247.1,264,246.1z"/>
		<path class="st0" d="M272.3,238c0.6,0.1,1.1,0.3,1.6,0.6c1.1,0.8,1.9,1.8,2.4,3.1c0.1,0.3,0.1,0.7,0.1,1v0.2
			c-0.1,1.4-0.3,2.8-0.7,4.2v0.4v0.1c0.6-0.6,1.2-1.3,1.7-2c1.9-2.1,3.3-3.1,4.1-3.1h0.2c1,0.1,1.9,0.6,2.6,1.3
			c0.6,0.5,1.1,1.2,1.5,1.9c0.3,0.6,0.4,1.3,0.4,2c0,1.9-0.9,5.5-2.6,10.7c-0.2,0.5-0.3,1.1-0.4,1.6l0,0l0,0c0.7-0.5,1.3-1,1.9-1.6
			c1.6-1.7,3-3.4,4.4-5.3c1.1-1.5,2.2-3,3.4-4.4c0.5-0.5,0.8-0.8,1-0.8c0.3,0.2,0.5,0.3,0.5,0.5v0.1c0,0.3-1.4,2.2-4,5.8
			c-1.7,2.3-3.6,4.6-5.6,6.7c-0.7,0.8-1.5,1.5-2.4,2c-0.3,0.2-0.6,0.3-0.9,0.3l0,0c-1-0.2-2-0.7-2.6-1.4c-0.9-1-1.4-2.2-1.4-3.6
			v-0.1c0-1.6,0.8-4.7,2.4-9.3c0.3-0.7,0.5-1.5,0.6-2.3c-0.4,0.1-1.5,1.1-3.2,3c-1.3,1.4-2.4,2.9-3.2,4.6c-0.6,1.7-1.1,3.5-1.5,5.2
			c-0.6,1.9-1.1,3-1.5,3.4c-0.2,0.2-0.4,0.3-0.6,0.3h-0.3c-1-0.3-1.9-0.8-2.5-1.6c-0.7-0.8-1-1.9-1-2.9c0.5-3,1.1-5.9,1.9-8.8
			c1.3-5.3,2.3-8.9,2.8-10.8C271.7,238.4,272,238,272.3,238z"/>
		<path class="st0" d="M349,202.5c2.4,0,4.6,1.4,6.6,4.3c1.2,1.8,1.9,4,2,6.2v0.3c0,2.4-0.9,4.8-2.5,6.5c-0.8,0.8-1.6,1.6-2.5,2.2
			c-1.3,0.9-2.8,1.7-4.3,2.3c-1.3,0.6-2.7,1-4.1,1.4c-1.6,0.4-2.7,0.7-3.3,0.8c-0.1,0-0.3,0.4-0.5,1.2c-0.3,1.1-1.1,4.1-2.5,9.1
			c-2.4,8.6-4.9,15.1-7.2,19.4c-0.3,0.6-0.6,1.3-0.9,2c2.9,1.2,5.7,2.1,8.5,3c3.8,1.1,7.8,1.7,11.8,1.8c4.4,0.1,8.7-1,12.6-3.2
			c0.6-0.4,1.2-0.9,1.7-1.5c0.2-0.2,0.4-0.6,0.4-0.9c-0.1-0.4-0.3-0.7-0.6-0.9c-0.2-0.3-0.2-0.6-0.2-0.9c0-0.4,0.2-0.7,0.5-0.7
			c0.8,0.2,1.5,0.6,2,1.3c0.9,1.2,1.4,2.7,1.4,4.2c0,1.5-0.7,2.9-2,3.7c-0.8,0.6-1.6,1.1-2.5,1.4c-3.4,1.4-7,2-10.7,2
			c-5.3,0-11.5-1.3-18.4-3.9c-3.6-1.3-5.8-2.1-6.5-2.4l0,0c-0.8,0.8-1.5,1.6-2.1,2.5c-0.7,0.8-1.5,1.7-2.4,2.6
			c-2.7,2.6-5.3,3.8-7.9,3.8c-2.7,0-5.2-1.3-7.5-4c-0.9-1-1.4-2.3-1.5-3.7v-0.4c0-1.8,1.1-3.4,3.3-5c0.7-0.5,1.5-0.9,2.4-1.2
			c1.6-0.5,3.2-0.7,4.9-0.8h0.7c1.3,0,2.6,0.2,3.9,0.4h0.3c0.4,0,0.9-0.6,1.5-1.9c3.2-5.3,6.3-13,9.3-22.9c0.4-1.4,0.7-2.4,0.9-3.1
			h-0.1h-0.1c-1.6,0.2-3.1,0.7-4.6,1.4c-0.8,0.4-1.6,0.8-2.3,1.4c-0.8,0.6-1.4,1.6-1.6,2.6c0,0.2-0.1,0.4-0.1,0.5v0.2
			c0,0.4,0.1,0.8,0.3,1.2v0.1c0,0.1,0,0.1-0.1,0.1H325c-0.3,0-0.6-0.4-1.2-1.1c-0.7-1.1-1-2.3-1-3.5c0-1.6,0.7-3.1,1.8-4.1
			c0.6-0.7,1.4-1.2,2.2-1.6c1.4-0.8,2.9-1.4,4.4-1.9c1-0.3,2.4-0.7,4.2-1.2c1.1-3.9,2.5-7.7,4.2-11.3c0.6-1.3,1.3-2.5,2.2-3.7
			c0.9-1.1,1.9-2.1,3-3C346,203,347.5,202.5,349,202.5z M311.4,265.2L311.4,265.2c0.6-0.1,1.2-0.2,1.8-0.4c0.7-0.3,1.4-0.6,2-1.1
			c1.1-0.9,2.2-1.8,3.3-2.8c0.4-0.4,0.6-0.7,0.6-0.9s-0.1-0.1-0.4-0.1c-1.2,0-2.4,0.3-3.6,0.7c-0.6,0.3-1.1,0.6-1.6,1
			C312.3,262.5,311.5,263.8,311.4,265.2L311.4,265.2z M343.2,219.4L343.2,219.4c1.5-0.6,2.9-1.4,4.3-2.2c3.5-2.5,5.2-5.1,5.2-7.8
			c0-0.3-0.1-0.5-0.4-0.5c-0.1,0-0.3,0-0.4,0l0,0c-1.3,0-2.9,1.1-4.7,3.3c-0.9,1.1-1.6,2.2-2.2,3.5c-0.6,1.1-1.1,2.3-1.5,3.6
			C343.3,219.1,343.2,219.2,343.2,219.4z"/>
		<path class="st0" d="M381.4,240.6h0.4c2.1,0,4.1,1.1,5.7,3.3c0.4,0.5,0.6,1.1,0.7,1.7c0,0.5-0.4,0.9-1.2,1.3h-0.2
			c-0.1,0-0.3-0.2-0.4-0.5c-0.2-0.2-0.6-0.4-0.9-0.3c-1.3,0-2.9,0.8-4.8,2.3c-0.7,0.6-1.4,1.4-2,2.1c-0.8,1-1.5,2.1-2.1,3.3
			c-0.9,1.6-1.6,3.3-2.1,5c-0.2,0.6-0.4,1.2-0.5,1.8v0.1h0.1c0.4-0.1,1.6-1,3.5-2.7c1.2-1.2,2.2-2.4,3.2-3.8c0.7-1,1.3-2.1,1.8-3.3
			c0.3-1.3,0.9-2.5,1.7-3.6c0.3-0.2,0.6-0.4,1-0.4h0.3c1,0.2,2,0.7,2.6,1.4c0.7,0.6,1.2,1.5,1.3,2.5c0,1.1-0.9,3.6-2.7,7.4
			c-0.5,0.8-0.9,1.7-1.1,2.6h0.1c0.3,0,1.4-1,3.3-3.1c1.8-2.1,3.4-4,4.8-5.9c0.8-1.3,1.7-2.5,2.6-3.6c0.5-0.7,0.9-1,1.2-1h0.1
			c0.3,0,0.5,0.2,0.5,0.4v0.2c0,0.9-2.5,4.6-7.5,10.9c-2.5,3.1-4.4,4.7-5.7,4.7c-1-0.1-1.9-0.5-2.6-1.3c-0.8-0.9-1.3-2.1-1.3-3.3
			c0-0.4,0-0.8,0.1-1.3c-0.8,1-1.7,2.1-2.7,3.2c-0.8,0.9-1.7,1.7-2.7,2.4c-0.5,0.4-1.2,0.5-1.8,0.5c-1.3-0.1-2.5-0.8-3.2-1.9
			c-1.3-1.5-2-3.4-2-5.4c0-2.5,1-5.3,2.9-8.5c0.7-1.2,1.6-2.3,2.6-3.3C376.7,241.9,379.1,240.6,381.4,240.6z"/>
		<path class="st0" d="M397.3,238c0.6,0.1,1.1,0.3,1.6,0.6c1.1,0.8,1.9,1.8,2.4,3.1c0.1,0.3,0.1,0.7,0.1,1v0.2
			c-0.1,1.4-0.3,2.8-0.7,4.2v0.4v0.1c0.6-0.6,1.2-1.3,1.7-2c1.9-2.1,3.3-3.1,4.1-3.1h0.2c1,0.1,1.9,0.6,2.6,1.3
			c0.6,0.5,1.1,1.2,1.5,1.9c0.3,0.6,0.4,1.3,0.4,2c0,1.9-0.9,5.5-2.6,10.7c-0.2,0.5-0.3,1.1-0.4,1.6l0,0l0,0c0.7-0.5,1.3-1,1.9-1.6
			c1.6-1.7,3-3.4,4.4-5.3c1.1-1.5,2.2-3,3.4-4.4c0.5-0.5,0.8-0.8,1-0.8c0.3,0.2,0.5,0.3,0.5,0.5v0.1c0,0.3-1.3,2.2-4,5.8
			c-1.7,2.3-3.6,4.6-5.6,6.7c-0.7,0.8-1.5,1.5-2.4,2c-0.3,0.2-0.6,0.3-0.9,0.3l0,0c-1-0.2-2-0.7-2.6-1.4c-0.9-1-1.4-2.3-1.4-3.6
			v-0.1c0-1.6,0.8-4.7,2.4-9.3c0.3-0.7,0.5-1.5,0.6-2.3c-0.4,0.1-1.5,1.1-3.2,3c-1.3,1.4-2.4,2.9-3.2,4.6c-0.6,1.7-1.1,3.5-1.6,5.2
			c-0.6,1.9-1.1,3-1.5,3.4c-0.2,0.2-0.4,0.3-0.6,0.3h-0.3c-1-0.3-1.8-0.8-2.5-1.6c-0.7-0.8-1-1.9-1-2.9c0.5-3,1.1-5.9,1.9-8.8
			c1.3-5.3,2.3-8.9,2.8-10.8C396.7,238.4,397,238,397.3,238z"/>
		<path class="st0" d="M441.8,215.6c1,0.1,1.9,0.6,2.5,1.3c0.9,0.7,1.4,1.7,1.6,2.8v0.1c0,0.8-0.8,4-2.3,9.7
			c-4.2,16.1-6.8,26.3-7.9,30.6v0.1c0.9-0.5,1.7-1.2,2.4-2c1.9-2.1,3.7-4.3,5.3-6.7c0.9-1.2,1.8-2.3,2.8-3.3
			c0.2-0.2,0.4-0.3,0.5-0.3c0.3,0.2,0.5,0.4,0.5,0.6c0,0.2-1.1,2-3.3,4.9c-1.7,2.4-3.6,4.8-5.6,7c-0.8,1-1.7,1.8-2.7,2.6
			c-0.5,0.5-1.1,0.7-1.8,0.8c-1-0.2-2-0.7-2.7-1.5c-1-1.1-1.5-2.5-1.5-4c0.1-2,0.5-4,1-6c-2.5,3.4-4.4,5.9-5.6,7.4
			c-1.1,1.2-2.2,2.3-3.4,3.3c-0.6,0.4-1.3,0.7-2,0.7h-0.2c-1.1,0-2.2-0.7-3.3-2.1c-1.2-1.4-1.9-3.2-1.9-5v-0.4c0-2.4,1-5.3,3.1-8.7
			c0.8-1.2,1.7-2.3,2.6-3.3c2.5-2.5,4.8-3.8,7.1-3.8h0.4c2.2,0.1,4.3,1.2,5.6,3c3.1-11.9,5-18.9,5.6-21c1.1-3.6,1.9-5.8,2.4-6.6
			C441.1,215.7,441.4,215.6,441.8,215.6z M419.6,260.7v0.1h0.1c1.2-0.3,2.2-0.9,3.1-1.8c0.6-0.5,1.7-1.6,3.4-3.5l5-5.2
			c0.4-1.7,0.7-2.9,0.9-3.6c-0.2-0.4-0.6-0.6-1-0.6c-1.6,0.2-3,0.9-4.2,1.9c-1,0.8-1.8,1.7-2.6,2.7c-1.1,1.5-2.1,3-2.8,4.7
			C420.7,257.1,420,258.8,419.6,260.7z"/>
		<path class="st0" d="M448.9,252.5c-0.5,0.7-1,1.4-1.5,2.2c-1,1.5-1.5,3.1-1.7,4.9c0,0.7,0.5,1.2,1.1,1.3c0.4,0.1,0.9,0.2,1.3,0.2
			c2-0.1,3.9-0.8,5.4-2c2-1.4,3.9-3,5.6-4.7c1.7-1.6,3.5-3.5,5.5-5.5c0.4-0.4,0.9-0.8,1.4-1.2c0.3,0.2,0.4,0.3,0.4,0.5l0,0
			c0,0.3-1,1.4-2.9,3.3c-2,2.1-3.7,4-5.1,5.6c-1.3,1.6-2.8,3-4.4,4.3c-1.8,1.4-3.3,2.2-4.4,2.3c-0.4,0.1-0.9,0.1-1.3,0.1
			c-2.3,0-4.1-1.4-5.7-4.2c-0.6-1.1-0.9-2.3-0.9-3.6c0-2.9,1.7-6.3,5.1-10.1c0.8-0.9,1.6-1.6,2.5-2.3c1.8-1.4,3.3-2,4.5-2h0.3
			c1.5,0.1,2.8,0.8,3.8,2c0.8,0.8,1.3,1.8,1.5,2.9c0.2,1.3-0.5,2.8-1.9,4.5c-1,1.1-2.2,2-3.6,2.4
			C452.3,253.8,450.4,253.5,448.9,252.5z M456.5,246.1c-1.5,0.4-2.9,1.2-4,2.3c-0.9,0.8-1.7,1.7-2.4,2.6c0.3,0.2,0.7,0.2,1,0.1
			l0.6-0.1c1.3-0.4,2.5-1.2,3.4-2.3C455.7,248,456.2,247.1,456.5,246.1z"/>
		<path class="st0" d="M255,292.6L255,292.6l5.8-15.5h1.9l-6.8,17.8h-1.9l-6.8-17.8h2L255,292.6z"/>
		<path class="st0" d="M271.5,287.3c0-2-1.1-3-3.1-3c-1.3,0-2.6,0.5-3.5,1.4l-1-1.1c1.3-1.1,2.9-1.7,4.6-1.7c2.5,0,4.6,1.4,4.6,4.3
			v5.1c0,0.9,0.1,1.8,0.2,2.6h-1.5c-0.1-0.6-0.2-1.3-0.2-1.9l0,0c-0.9,1.5-2.6,2.3-4.3,2.2c-1.8,0-4.1-1-4.1-3.6c0-3.6,4-4,8.3-4
			L271.5,287.3z M271,289c-2.8,0-6,0.3-6,2.5c0,1.7,1.4,2.2,2.8,2.2c2,0.1,3.7-1.5,3.8-3.6c0-0.1,0-0.2,0-0.3V289H271z"/>
		<path class="st0" d="M279.2,288.5L279.2,288.5l5.5-5.3h2.5l-5.9,5.4l6.5,6.4h-2.5l-6-6.2h-0.1v6.2h-1.7v-19h1.7V288.5z"/>
		<path class="st0" d="M297.6,287.3c0-2-1.1-3-3.1-3c-1.3,0-2.5,0.5-3.5,1.4l-1-1.1c1.3-1.1,2.9-1.7,4.6-1.7c2.5,0,4.6,1.4,4.6,4.3
			v5.1c0,0.9,0.1,1.8,0.2,2.6h-1.5c-0.1-0.6-0.2-1.3-0.2-1.9l0,0c-0.9,1.5-2.6,2.3-4.3,2.2c-1.8,0-4.1-1-4.1-3.6c0-3.6,4-4,8.3-4
			L297.6,287.3z M297.1,289c-2.8,0-6,0.3-6,2.5c0,1.7,1.4,2.2,2.8,2.2c2,0.1,3.7-1.5,3.8-3.6c0-0.1,0-0.2,0-0.3V289H297.1z"/>
		<path class="st0" d="M305.1,283.1c0,0.6,0.1,1.5,0.1,2l0,0c0.8-1.4,2.3-2.3,4-2.3c3,0,4.5,1.9,4.5,4.8v7.2H312v-6.5
			c0-2.5-0.7-4.1-3.2-4.1c-1.8,0-3.6,1.5-3.6,4.6v6h-1.6v-9.2c0-0.6,0-1.8-0.1-2.6L305.1,283.1z"/>
		<path class="st0" d="M323.5,284.6h-3.3v6.9c0,1.8,0.7,2.2,1.8,2.2c0.5,0,1-0.1,1.5-0.4l0.1,1.5c-0.6,0.2-1.3,0.4-2,0.3
			c-1.5,0.1-2.9-1-3-2.6c0-0.2,0-0.4,0-0.5v-7.3H316v-1.5h2.4v-3.3h1.7v3.3h3.3L323.5,284.6z"/>
		<path class="st0" d="M327,279.8c-0.7,0-1.2-0.5-1.2-1.2c0-0.7,0.5-1.2,1.2-1.2s1.2,0.5,1.2,1.2l0,0
			C328.2,279.3,327.7,279.8,327,279.8z M327.9,294.9h-1.7v-11.8h1.7V294.9z"/>
		<path class="st0" d="M343.1,289.5h-9.8c0,2.4,1.9,4.3,4.3,4.3c1.5,0,2.9-0.7,3.8-2l1.3,1c-1.2,1.6-3.1,2.5-5.1,2.5
			c-3.4-0.1-6.1-2.9-6-6.3c0.1-3.2,2.6-5.9,5.9-6c3.7,0,5.6,2.6,5.6,5.8C343.1,289,343.1,289.2,343.1,289.5z M341.4,288.1
			c0.1-2-1.5-3.8-3.6-3.8c-0.1,0-0.2,0-0.3,0c-2.2,0-4,1.7-4.1,3.8H341.4z"/>
		<path class="st0" d="M352,295.2c-3.4-0.1-6.1-3-5.9-6.4c0.1-3.2,2.7-5.8,5.9-5.9c1.8,0,3.4,0.9,4.5,2.3h0v-9.3h1.7v19h-1.7v-2h0
			C355.4,294.4,353.8,295.2,352,295.2z M352.2,293.8c2.6-0.1,4.6-2.3,4.5-5c-0.1-2.4-2.1-4.4-4.5-4.5c-2.8,0-4.4,2.1-4.4,4.8
			S349.4,293.8,352.2,293.8L352.2,293.8z"/>
		<path class="st0" d="M368.2,295.2c-3.4,0-6.1-2.9-6.1-6.3c0-3.4,2.9-6.1,6.3-6.1c3.4,0,6.1,2.8,6.1,6.2c0.1,3.3-2.5,6.1-5.8,6.2
			C368.5,295.2,368.4,295.2,368.2,295.2z M368.2,284.3c-2.6-0.1-4.9,1.8-5,4.5c-0.1,2.6,1.8,4.9,4.5,5c2.6,0.1,4.9-1.8,5-4.5
			c0-0.1,0-0.2,0-0.3c0.2-2.4-1.7-4.6-4.1-4.7C368.4,284.3,368.3,284.3,368.2,284.3z"/>
		<path class="st0" d="M383.7,282.8c1.6-0.1,3.1,0.9,3.6,2.5c0.7-1.6,2.4-2.6,4.1-2.5c3,0,4.5,1.9,4.5,4.9v7.2h-1.7v-6.5
			c0-2.5-0.8-4.1-3-4.1c-2.5,0-3.3,2.2-3.3,4.4v6.3h-1.7v-6.9c0-2.3-0.5-3.8-2.8-3.8c-1.6,0-3.4,1.5-3.4,4.6v6h-1.7v-9.2
			c0-0.6,0-1.8-0.1-2.6h1.6c0.1,0.6,0.1,1.5,0.1,2l0,0C380.5,283.7,382.1,282.8,383.7,282.8z"/>
		<path class="st0" d="M411,289.5h-9.8c0,2.4,1.9,4.3,4.3,4.3c1.5,0,2.9-0.7,3.8-2l1.3,1c-1.2,1.6-3.1,2.5-5.1,2.5
			c-3.4-0.1-6.1-2.9-6-6.3c0.1-3.2,2.6-5.9,5.9-6c3.7,0,5.6,2.6,5.6,5.8C411,288.9,411,289.2,411,289.5z M409.3,288.1
			c0.1-2-1.5-3.8-3.6-3.8c-0.1,0-0.2,0-0.3,0c-2.2,0-4,1.7-4.1,3.8H409.3z"/>
		<path class="st0" d="M415.6,279.8c-0.7,0-1.2-0.5-1.2-1.2c0-0.7,0.5-1.2,1.2-1.2s1.2,0.5,1.2,1.2c0,0,0,0,0,0
			C416.8,279.3,416.3,279.8,415.6,279.8z M416.4,294.9h-1.7v-11.8h1.7V294.9z"/>
		<path class="st0" d="M422.5,283.1c0.1,0.6,0.1,1.5,0.1,2h0c0.8-1.4,2.3-2.3,4-2.3c3,0,4.5,1.9,4.5,4.8v7.2h-1.7v-6.5
			c0-2.5-0.7-4.1-3.2-4.1c-1.8,0-3.6,1.5-3.6,4.6v6H421v-9.2c0-0.6,0-1.8-0.1-2.6L422.5,283.1z"/>
	</g>
</g>
</svg>
