<?xml version="1.0" encoding="utf-8"?>
<!-- Generator: Adobe Illustrator 23.0.1, SVG Export Plug-In . SVG Version: 6.00 Build 0)  -->
<svg version="1.1" id="Laag_1" xmlns="http://www.w3.org/2000/svg" xmlns:xlink="http://www.w3.org/1999/xlink" x="0px" y="0px"
	 viewBox="0 0 252.5 93.7" style="enable-background:new 0 0 252.5 93.7;" xml:space="preserve">
<style type="text/css">
	.st0{fill:#923B58;}
</style>
<title>Logo</title>
<g>
	<g>
		<path class="st0" d="M43.2,0h1.5c3.7-0.1,7.5,0.3,11.1,1.3c2.6,0.7,5.1,2,7.2,3.8c2.2,1.8,3.5,4.6,3.5,7.4v0.2
			c-0.1,2-0.8,3.9-2.1,5.3c-0.5,0.6-1.1,1.1-1.7,1.6l-0.6,0.5c-0.2-0.3-0.3-0.6-0.4-1c0-0.1,0.3-0.4,0.8-0.9
			c0.9-1.1,1.5-2.4,1.7-3.8c0.2-0.5,0.2-1.1,0.2-1.7v-0.4c0-0.8-0.5-1.5-1.2-1.8c-0.7-0.5-1.5-1-2.3-1.3c-1.3-0.4-2.6-0.8-4-1
			c-2.8-0.5-5.6-0.7-8.4-0.8c-6.4,0-12.8,0.8-19,2.5c-5.3,1.3-10.4,2.9-15.4,5c-2.7,1.1-5.2,2.5-7.6,4.2C5.7,20,4.8,20.8,4,21.6
			c-1,1-1.6,2.4-1.8,3.8c0,2.3,2.8,5.4,8.5,9.3c2.1,1.4,4,3,5.9,4.7c1.1,0.9,2.1,1.9,3,3c1,1.2,1.9,2.4,2.7,3.7
			c0.9,1.6,1.7,3.2,2.3,5l0,0c2.5-9.9,5-19.8,7.4-29.9c1-4.2,1.7-7.1,2.1-8.6c0.3-0.9,0.5-1.4,0.7-1.4c0.2-0.1,0.4-0.2,0.6-0.2
			c0.9,0,2.1,0.9,3.5,2.5c0.5,0.7,0.9,1.4,1.3,2.3c0.1,0.3,0.2,0.7,0.3,1v0.2c0,0.8-1.1,5.4-3.2,13.7c-2.4,9.7-5.3,22-8.7,36.9
			c-0.4,1.8-0.7,3.5-1,5.1c-0.3,0.8-0.6,1.2-1.1,1.2h-0.1c-0.9-0.1-1.7-0.5-2.3-1.1c-0.8-0.7-1.5-1.6-2.2-2.5
			c-0.7-0.9-1.1-1.9-1.2-3c0.2-1.8,0.7-3.6,1.3-5.3c0.7-2.2,1.4-4.9,2.1-8.1c-0.3-1.5-0.8-3-1.4-4.4c-0.6-1.4-1.4-2.7-2.3-4
			c-1.7-2.3-3.7-4.3-6-5.9c-1.2-0.9-3.4-2.4-6.4-4.5c-1.1-0.9-2.2-1.8-3.2-2.8c-0.9-0.9-1.7-1.9-2.4-2.9c-1.3-1.8-2-4-2.1-6.2V23
			c0-3.4,2-6.8,6.1-10.3c1.8-1.4,3.6-2.7,5.6-3.8c3.1-1.7,6.4-3.2,9.7-4.5C29.7,1.5,36.9,0,43.2,0z"/>
		<path class="st0" d="M42.4,51c-0.5,0.7-1,1.4-1.5,2.2c-0.9,1.5-1.5,3.1-1.7,4.9c0,0.7,0.5,1.2,1.2,1.3c0.4,0.1,0.9,0.2,1.3,0.2
			c2-0.1,3.9-0.8,5.4-2c2-1.5,3.9-3,5.6-4.8c1.7-1.6,3.5-3.4,5.5-5.4c0.4-0.4,0.9-0.8,1.4-1.2c0.3,0.2,0.4,0.3,0.4,0.5l0,0
			c0,0.3-1,1.4-2.9,3.3c-2,2.1-3.7,4-5.1,5.6c-1.3,1.6-2.8,3-4.3,4.4c-1.8,1.4-3.3,2.2-4.4,2.3c-0.4,0.1-0.9,0.1-1.3,0.1
			c-2.3,0-4.1-1.4-5.7-4.2c-0.6-1.1-0.9-2.3-0.9-3.6c0-2.9,1.7-6.3,5.1-10.1c0.8-0.9,1.6-1.6,2.5-2.3c1.8-1.4,3.3-2,4.5-2h0.3
			c1.5,0.1,2.8,0.8,3.8,2c0.8,0.8,1.3,1.8,1.5,2.9c0.2,1.3-0.5,2.8-1.8,4.5c-1,1.1-2.2,2-3.6,2.4C45.8,52.3,43.9,52,42.4,51z
			 M49.9,44.6c-1.5,0.4-2.9,1.2-4,2.3c-0.9,0.8-1.7,1.7-2.4,2.6c0.3,0.2,0.7,0.2,1,0.1l0.6-0.1c1.3-0.4,2.5-1.2,3.4-2.3
			C49.2,46.4,49.7,45.6,49.9,44.6z"/>
		<path class="st0" d="M58.3,36.5c0.6,0.1,1.1,0.3,1.6,0.6c1.1,0.8,1.9,1.8,2.4,3.1c0.1,0.3,0.1,0.7,0.1,1v0.2
			c-0.1,1.4-0.3,2.8-0.7,4.2V46v0.1c0.6-0.6,1.2-1.3,1.7-2c1.9-2.1,3.3-3.1,4.1-3.1h0.2c1,0.1,1.9,0.6,2.7,1.3
			c0.6,0.5,1.1,1.2,1.5,1.9c0.3,0.6,0.4,1.3,0.4,2c0,1.9-0.9,5.5-2.6,10.7c-0.2,0.5-0.3,1.1-0.4,1.7l0,0l0,0c0.7-0.5,1.3-1,1.9-1.6
			c1.6-1.7,3-3.4,4.3-5.3c1.1-1.5,2.2-3,3.4-4.4c0.5-0.5,0.8-0.8,1-0.8c0.3,0.2,0.5,0.3,0.5,0.5v0.1c0,0.3-1.3,2.2-4,5.8
			c-1.7,2.3-3.6,4.6-5.6,6.7c-0.7,0.8-1.5,1.5-2.4,2c-0.3,0.2-0.6,0.3-0.9,0.3l0,0c-1-0.2-2-0.7-2.6-1.4c-0.9-1-1.4-2.2-1.4-3.6
			v-0.1c0-1.6,0.8-4.7,2.4-9.3c0.3-0.7,0.5-1.5,0.6-2.3c-0.4,0.1-1.5,1.1-3.2,3c-1.3,1.4-2.4,2.9-3.2,4.6c-0.6,1.7-1.1,3.5-1.6,5.2
			c-0.6,1.9-1.1,3-1.5,3.4c-0.2,0.2-0.4,0.3-0.6,0.3h-0.3c-1-0.3-1.9-0.8-2.5-1.6c-0.7-0.8-1-1.9-1-2.9c0.5-3,1.1-5.9,1.9-8.8
			c1.3-5.3,2.3-8.9,2.8-10.8C57.7,36.8,58,36.5,58.3,36.5z"/>
		<path class="st0" d="M135,0.9c2.4,0,4.6,1.4,6.6,4.3c1.2,1.8,1.9,4,2,6.2v0.3c0,2.4-0.9,4.8-2.5,6.5c-0.8,0.8-1.6,1.6-2.5,2.2
			c-1.3,0.9-2.8,1.7-4.3,2.3c-1.3,0.6-2.7,1-4.1,1.4c-1.6,0.4-2.7,0.7-3.3,0.8c-0.1,0-0.3,0.4-0.5,1.2c-0.3,1.1-1.1,4.1-2.5,9
			c-2.4,8.6-4.9,15.1-7.2,19.4c-0.3,0.6-0.6,1.3-0.9,2c2.9,1.2,5.7,2.1,8.5,3c3.8,1.1,7.8,1.7,11.8,1.8c4.4,0.1,8.7-1,12.6-3.2
			c0.6-0.4,1.2-0.9,1.7-1.5c0.2-0.2,0.4-0.6,0.4-0.9c-0.1-0.4-0.3-0.7-0.6-0.9c-0.2-0.3-0.2-0.6-0.2-0.9c0-0.4,0.2-0.7,0.5-0.7
			c0.8,0.2,1.5,0.6,2,1.3c0.9,1.2,1.4,2.7,1.4,4.2c0,1.5-0.7,2.9-2,3.7c-0.8,0.6-1.6,1.1-2.5,1.4c-3.4,1.4-7,2-10.7,2
			c-5.3,0-11.5-1.3-18.4-3.9c-3.6-1.3-5.7-2.1-6.5-2.3l0,0c-0.8,0.8-1.5,1.6-2.1,2.5c-0.7,0.8-1.5,1.7-2.4,2.6
			c-2.7,2.6-5.3,3.8-7.9,3.8c-2.7,0-5.2-1.3-7.5-4c-0.9-1-1.4-2.3-1.5-3.7v-0.4c0-1.8,1.1-3.4,3.3-5c0.7-0.5,1.5-0.9,2.4-1.2
			c1.6-0.5,3.2-0.7,4.9-0.8h0.7c1.3,0,2.6,0.2,3.9,0.4h0.3c0.4,0,0.9-0.6,1.6-1.8c3.2-5.3,6.3-13,9.3-22.9c0.4-1.4,0.7-2.4,0.9-3.1
			h-0.1h-0.1c-1.6,0.2-3.1,0.7-4.6,1.4c-0.8,0.4-1.6,0.8-2.3,1.4c-0.8,0.6-1.4,1.6-1.7,2.6c0,0.2-0.1,0.4-0.1,0.5v0.2
			c0,0.4,0.1,0.8,0.3,1.2v0.1c0,0.1,0,0.1-0.1,0.1H111c-0.3,0-0.6-0.4-1.2-1.1c-0.7-1.1-1-2.3-1-3.5c0-1.6,0.7-3.1,1.8-4.1
			c0.6-0.7,1.4-1.2,2.2-1.7c1.4-0.8,2.9-1.4,4.4-1.9c1-0.3,2.4-0.7,4.2-1.2c1.1-3.9,2.5-7.7,4.2-11.3c0.6-1.3,1.3-2.5,2.2-3.7
			c0.9-1.1,1.9-2.1,3-3C132,1.4,133.5,0.9,135,0.9z M97.4,63.7L97.4,63.7c0.6-0.1,1.2-0.2,1.8-0.4c0.7-0.3,1.4-0.6,2-1.1
			c1.1-0.9,2.2-1.8,3.3-2.8c0.4-0.4,0.6-0.7,0.6-0.9s-0.1-0.1-0.4-0.1c-1.2,0-2.4,0.3-3.6,0.7c-0.6,0.3-1.1,0.6-1.6,1
			C98.3,60.9,97.5,62.3,97.4,63.7L97.4,63.7z M129.1,17.8L129.1,17.8c1.5-0.6,2.9-1.4,4.3-2.2c3.5-2.5,5.2-5.1,5.2-7.8
			c0-0.3-0.1-0.5-0.4-0.5c-0.1,0-0.3,0-0.4,0l0,0c-1.3,0-2.9,1.1-4.7,3.3c-0.9,1.1-1.6,2.2-2.2,3.5c-0.6,1.1-1.1,2.3-1.5,3.6
			C129.3,17.6,129.2,17.7,129.1,17.8z"/>
		<path class="st0" d="M167.4,39h0.4c2.1,0,4.1,1.1,5.7,3.3c0.4,0.5,0.6,1.1,0.7,1.7c0,0.5-0.4,1-1.2,1.3h-0.2
			c-0.1,0-0.3-0.2-0.4-0.5c-0.2-0.2-0.6-0.4-0.9-0.3c-1.3,0-2.9,0.8-4.8,2.3c-0.7,0.6-1.4,1.4-2,2.1c-0.8,1-1.5,2.1-2.1,3.3
			c-0.9,1.6-1.6,3.3-2.1,5c-0.2,0.6-0.4,1.2-0.5,1.8v0.1h0.1c0.4-0.1,1.6-1,3.5-2.7c1.2-1.2,2.2-2.4,3.2-3.8c0.7-1,1.3-2.1,1.8-3.3
			c0.3-1.3,0.9-2.5,1.7-3.6c0.3-0.2,0.6-0.4,1-0.4h0.3c1,0.2,2,0.7,2.6,1.4c0.7,0.6,1.2,1.5,1.3,2.5c0,1.1-0.9,3.6-2.7,7.4
			c-0.5,0.8-0.9,1.7-1.1,2.6h0.1c0.3,0,1.4-1,3.3-3.1c1.8-2.1,3.4-4,4.8-5.9c0.8-1.3,1.7-2.5,2.6-3.6c0.5-0.7,0.9-1,1.2-1h0.1
			c0.3,0,0.5,0.2,0.5,0.4v0.2c0,0.9-2.5,4.6-7.5,10.9c-2.5,3.1-4.4,4.7-5.7,4.7c-1-0.1-1.9-0.5-2.6-1.3c-0.8-0.9-1.3-2.1-1.3-3.3
			c0-0.4,0-0.8,0.1-1.3c-0.8,1-1.7,2.1-2.7,3.2c-0.8,0.9-1.7,1.7-2.7,2.4c-0.5,0.4-1.2,0.5-1.8,0.5c-1.3-0.1-2.5-0.8-3.2-1.8
			c-1.3-1.5-2-3.4-2-5.4c0-2.5,1-5.3,2.9-8.5c0.7-1.2,1.6-2.3,2.6-3.3C162.7,40.4,165.1,39,167.4,39z"/>
		<path class="st0" d="M183.3,36.5c0.6,0.1,1.1,0.3,1.6,0.6c1.1,0.8,1.9,1.8,2.4,3.1c0.1,0.3,0.1,0.7,0.1,1v0.2
			c-0.1,1.4-0.3,2.8-0.7,4.2V46v0.1c0.6-0.6,1.2-1.3,1.7-2c1.9-2.1,3.3-3.1,4.1-3.1h0.2c1,0.1,1.9,0.6,2.6,1.3
			c0.6,0.5,1.1,1.2,1.5,1.9c0.3,0.6,0.4,1.3,0.4,2c0,1.9-0.9,5.5-2.6,10.7c-0.2,0.5-0.3,1.1-0.4,1.7l0,0l0,0c0.7-0.5,1.3-1,1.9-1.6
			c1.6-1.7,3-3.4,4.4-5.3c1.1-1.5,2.2-3,3.4-4.4c0.5-0.5,0.8-0.8,1-0.8c0.3,0.2,0.5,0.3,0.5,0.5v0.1c0,0.3-1.3,2.2-4,5.8
			c-1.7,2.3-3.6,4.6-5.6,6.7c-0.7,0.8-1.5,1.5-2.4,2c-0.3,0.2-0.6,0.3-0.9,0.3l0,0c-1-0.2-2-0.7-2.6-1.4c-0.9-1-1.4-2.3-1.4-3.6
			v-0.1c0-1.6,0.8-4.7,2.4-9.3c0.3-0.7,0.5-1.5,0.6-2.3c-0.4,0.1-1.5,1.1-3.2,3c-1.3,1.4-2.4,2.9-3.2,4.6c-0.6,1.7-1.1,3.5-1.6,5.2
			c-0.6,1.9-1.1,3-1.5,3.4c-0.2,0.2-0.4,0.3-0.6,0.3h-0.3c-1-0.3-1.8-0.8-2.5-1.5c-0.7-0.8-1-1.9-1-2.9c0.5-3,1.1-5.9,1.9-8.8
			c1.3-5.3,2.3-8.9,2.8-10.8C182.6,36.8,183,36.5,183.3,36.5z"/>
		<path class="st0" d="M227.8,14c1,0.1,1.9,0.6,2.6,1.3c0.9,0.7,1.4,1.7,1.6,2.8v0.1c0,0.8-0.8,4-2.3,9.7
			c-4.2,16.1-6.8,26.3-7.9,30.6v0.1c0.9-0.5,1.7-1.2,2.4-2c1.9-2.1,3.7-4.3,5.3-6.7c0.9-1.2,1.8-2.3,2.8-3.3
			c0.2-0.2,0.4-0.3,0.5-0.3c0.3,0.2,0.5,0.4,0.5,0.6s-1.1,2-3.3,4.9c-1.7,2.4-3.6,4.8-5.6,7c-0.8,1-1.7,1.8-2.7,2.6
			c-0.5,0.5-1.1,0.7-1.8,0.8c-1-0.2-2-0.7-2.7-1.5c-1-1.1-1.5-2.5-1.5-4c0.1-2,0.5-4,1-6c-2.5,3.4-4.4,5.9-5.6,7.4
			c-1.1,1.2-2.2,2.3-3.4,3.3c-0.6,0.4-1.3,0.7-2,0.7h-0.2c-1.1,0-2.2-0.7-3.3-2.1c-1.2-1.4-1.9-3.2-1.9-5v-0.4c0-2.4,1-5.3,3.1-8.7
			c0.8-1.2,1.7-2.3,2.6-3.3c2.5-2.5,4.8-3.8,7.1-3.8h0.4c2.2,0.1,4.3,1.2,5.6,3c3.1-11.9,5-18.9,5.6-21c1.1-3.6,1.9-5.8,2.4-6.6
			C227.1,14.2,227.4,14,227.8,14z M205.6,59.2L205.6,59.2l0.1,0.1c1.2-0.3,2.2-0.9,3.1-1.8c0.6-0.5,1.7-1.6,3.4-3.5l5-5.2
			c0.4-1.7,0.7-2.9,0.9-3.6c-0.2-0.4-0.6-0.6-1-0.6c-1.6,0.2-3,0.9-4.2,1.9c-1,0.8-1.8,1.7-2.6,2.7c-1.1,1.5-2.1,3-2.8,4.7
			C206.6,55.5,206,57.3,205.6,59.2z"/>
		<path class="st0" d="M234.9,51c-0.5,0.7-1,1.4-1.5,2.2c-1,1.5-1.5,3.1-1.7,4.9c0,0.7,0.5,1.2,1.1,1.3c0.4,0.1,0.9,0.2,1.3,0.2
			c2-0.1,3.9-0.8,5.4-2c2-1.4,3.9-3,5.6-4.7c1.7-1.6,3.5-3.5,5.5-5.5c0.4-0.4,0.9-0.8,1.4-1.2c0.3,0.2,0.4,0.3,0.4,0.5l0,0
			c0,0.3-1,1.4-2.9,3.3c-2,2.1-3.7,4-5.1,5.6c-1.3,1.6-2.8,3-4.4,4.3c-1.8,1.4-3.3,2.2-4.4,2.3c-0.4,0.1-0.9,0.1-1.3,0.1
			c-2.3,0-4.1-1.4-5.7-4.2c-0.6-1.1-0.9-2.3-0.9-3.6c0-2.9,1.7-6.3,5.1-10.1c0.8-0.9,1.6-1.6,2.5-2.3c1.8-1.4,3.3-2,4.5-2h0.3
			c1.5,0.1,2.8,0.8,3.8,2c0.8,0.8,1.3,1.8,1.5,2.9c0.2,1.3-0.5,2.8-1.9,4.5c-1,1.1-2.2,2-3.6,2.4C238.3,52.2,236.4,52,234.9,51z
			 M242.4,44.6c-1.5,0.4-2.9,1.2-4,2.3c-0.9,0.8-1.7,1.7-2.4,2.6c0.3,0.2,0.7,0.2,1,0.1l0.6-0.1c1.3-0.4,2.5-1.2,3.4-2.3
			C241.7,46.5,242.2,45.6,242.4,44.6z"/>
		<path class="st0" d="M41,91L41,91l5.8-15.4h1.9l-6.8,17.8H40l-6.8-17.8h2L41,91z"/>
		<path class="st0" d="M57.5,85.8c0-2-1.1-3-3.1-3c-1.3,0-2.6,0.5-3.5,1.4l-1-1.1c1.3-1.1,2.9-1.7,4.6-1.7c2.5,0,4.6,1.4,4.6,4.3
			v5.2c0,0.9,0.1,1.8,0.2,2.6h-1.5c-0.1-0.6-0.2-1.3-0.2-1.9l0,0c-0.9,1.5-2.6,2.3-4.3,2.2c-1.8,0-4.1-1-4.1-3.6c0-3.6,4-4,8.3-4
			L57.5,85.8z M56.9,87.5c-2.8,0-6,0.3-6,2.5c0,1.7,1.4,2.2,2.8,2.2c2,0.1,3.7-1.5,3.8-3.6c0-0.1,0-0.2,0-0.3v-0.9H56.9z"/>
		<path class="st0" d="M65.2,86.9L65.2,86.9l5.5-5.3h2.5L67.3,87l6.5,6.4h-2.5l-6-6.2h-0.1v6.2h-1.7v-19h1.7V86.9z"/>
		<path class="st0" d="M83.5,85.8c0-2-1.1-3-3.1-3c-1.3,0-2.5,0.5-3.5,1.4l-1-1.1c1.3-1.1,2.9-1.7,4.6-1.7c2.5,0,4.6,1.4,4.6,4.3
			v5.2c0,0.9,0.1,1.8,0.2,2.6h-1.5c-0.1-0.6-0.2-1.3-0.2-1.9l0,0c-0.9,1.5-2.6,2.3-4.3,2.2c-1.8,0-4.1-1-4.1-3.6c0-3.6,4-4,8.3-4
			L83.5,85.8z M83,87.5c-2.8,0-6,0.3-6,2.5c0,1.7,1.4,2.2,2.8,2.2c2,0.1,3.7-1.5,3.8-3.6c0-0.1,0-0.2,0-0.3v-0.9H83z"/>
		<path class="st0" d="M91.1,81.6c0,0.6,0.1,1.5,0.1,2l0,0c0.8-1.4,2.3-2.3,4-2.3c3,0,4.5,1.9,4.5,4.8v7.2h-1.7v-6.5
			c0-2.5-0.7-4.1-3.2-4.1c-1.8,0-3.6,1.4-3.6,4.6v6h-1.6v-9.2c0-0.6,0-1.8-0.1-2.6L91.1,81.6z"/>
		<path class="st0" d="M109.5,83h-3.3v6.9c0,1.8,0.7,2.2,1.8,2.2c0.5,0,1-0.1,1.5-0.4l0.1,1.5c-0.6,0.2-1.3,0.4-2,0.3
			c-1.5,0.1-2.9-1-3-2.6c0-0.2,0-0.4,0-0.5v-7.3H102v-1.5h2.4v-3.3h1.7v3.3h3.3L109.5,83z"/>
		<path class="st0" d="M113,78.3c-0.7,0-1.2-0.5-1.2-1.2s0.5-1.2,1.2-1.2s1.2,0.5,1.2,1.2l0,0C114.2,77.8,113.7,78.3,113,78.3z
			 M113.8,93.4h-1.7V81.6h1.7V93.4z"/>
		<path class="st0" d="M129.1,87.9h-9.7c0,2.4,1.9,4.3,4.3,4.3c1.5,0,2.9-0.7,3.8-2l1.3,1c-1.2,1.6-3.1,2.5-5,2.5
			c-3.4-0.1-6.1-2.9-6-6.3c0.1-3.2,2.6-5.9,5.9-6c3.7,0,5.6,2.6,5.6,5.8C129.1,87.4,129.1,87.7,129.1,87.9z M127.4,86.6
			c0.1-2-1.5-3.8-3.6-3.8c-0.1,0-0.2,0-0.3,0c-2.2,0-4,1.7-4.1,3.8H127.4z"/>
		<path class="st0" d="M138,93.7c-3.4-0.1-6.1-3-5.9-6.4c0.1-3.2,2.7-5.8,5.9-5.9c1.8,0,3.4,0.9,4.4,2.3h0.1v-9.3h1.7v19h-1.7v-2
			h-0.1C141.4,92.8,139.8,93.7,138,93.7z M138.2,92.2c2.6-0.1,4.6-2.3,4.5-5c-0.1-2.4-2.1-4.4-4.5-4.5c-2.8,0-4.4,2.1-4.4,4.8
			S135.3,92.2,138.2,92.2L138.2,92.2z"/>
		<path class="st0" d="M154.2,93.7c-3.4,0-6.1-2.9-6.1-6.3c0-3.4,2.9-6.1,6.3-6.1c3.4,0,6.1,2.8,6.1,6.2c0.1,3.3-2.5,6.1-5.8,6.2
			C154.5,93.7,154.3,93.7,154.2,93.7z M154.2,82.7c-2.6-0.1-4.9,1.8-5,4.5s1.8,4.9,4.5,5c2.6,0.1,4.9-1.8,5-4.5c0-0.1,0-0.2,0-0.3
			c0.2-2.4-1.7-4.6-4.1-4.7C154.4,82.8,154.3,82.7,154.2,82.7z"/>
		<path class="st0" d="M169.6,81.3c1.6-0.1,3.1,0.9,3.6,2.5c0.7-1.6,2.4-2.6,4.1-2.5c3,0,4.5,1.9,4.5,4.8v7.2h-1.7v-6.5
			c0-2.5-0.8-4.1-3-4.1c-2.5,0-3.3,2.2-3.3,4.4v6.3h-1.7v-6.9c0-2.3-0.6-3.8-2.8-3.8c-1.6,0-3.4,1.4-3.4,4.6v6h-1.7v-9.2
			c0-0.6,0-1.8-0.1-2.6h1.6c0.1,0.6,0.1,1.5,0.1,2l0,0C166.5,82.2,168,81.3,169.6,81.3z"/>
		<path class="st0" d="M197,87.9h-9.8c0,2.4,1.9,4.3,4.3,4.3c1.5,0,2.9-0.7,3.8-2l1.3,1c-1.2,1.6-3.1,2.5-5.1,2.5
			c-3.4-0.1-6.1-2.9-6-6.3c0.1-3.2,2.6-5.9,5.9-6c3.7,0,5.6,2.6,5.6,5.8C197,87.4,197,87.6,197,87.9z M195.3,86.6
			c0.1-2-1.5-3.8-3.6-3.8c-0.1,0-0.2,0-0.3,0c-2.2,0-4,1.7-4.1,3.8H195.3z"/>
		<path class="st0" d="M201.6,78.3c-0.7,0-1.2-0.5-1.2-1.2c0-0.7,0.5-1.2,1.2-1.2c0.7,0,1.2,0.5,1.2,1.2c0,0,0,0,0,0
			C202.8,77.7,202.2,78.3,201.6,78.3z M202.4,93.4h-1.7V81.6h1.7V93.4z"/>
		<path class="st0" d="M208.5,81.6c0.1,0.6,0.1,1.5,0.1,2h0c0.8-1.4,2.3-2.3,4-2.3c3,0,4.5,1.9,4.5,4.8v7.2h-1.7v-6.5
			c0-2.5-0.7-4.1-3.2-4.1c-1.8,0-3.6,1.4-3.6,4.6v6h-1.7v-9.2c0-0.6,0-1.8-0.1-2.6L208.5,81.6z"/>
	</g>
</g>
</svg>
